<svg width="1630" height="1028" viewBox="0 0 1630 1028" fill="none" xmlns="http://www.w3.org/2000/svg">
<g opacity="0.05">
<path d="M1462.44 61.8523L1476.72 69.0697L1490.46 78.6158L1502.23 92.5953L1510.31 107.629L1515.42 123.06L1515.53 140.95L1515.4 157.724L1509.16 174.638L1503.09 188.74L1492.39 203.899L1482.62 217.938L1469.92 230.089L1456.07 238.976L1443.54 249.408L1428.76 259.437L1415.13 270.565L1402.64 284.288L1390.62 296.934L1381.05 312.713L1373.17 326.897L1366.07 344.764L1363.22 361.32L1361.08 379.093L1360.01 395.982L1362.06 414.174L1366.73 429.69L1371.23 447.512L1377.88 463.749L1385.03 479.928L1391.09 496.278L1398.87 511.9L1404.94 527.295L1410.13 542.271L1416.23 560.411L1419.8 576.422L1419.27 593.16L1417.22 611.232L1413.79 626.328L1406.21 643.391L1397.36 657.049L1386.87 671.114L1373.42 682.839L1361.08 694.1L1348.18 705.127L1334.98 714.127L1320.21 723.928L1305.53 733.978L1291.03 742.647L1275.39 749.821L1258.37 755.857L1242.03 761.129L1225.74 765.175L1208.41 766.806L1191.55 765.69L1175.17 764.212L1158.01 760.394L1143.22 753.184L1127.58 743.349L1113.86 734.42L1102.14 721.123L1090.39 709.18L1081.17 694.841L1071.61 680.568L1065.98 663.665L1058.12 649.053L1052.58 631.706L1049.55 616.18L1045.59 598.16L1043.19 581.332L1040.77 564.462L1038.91 548.35L1038.85 530.037L1039.31 512.887L1035.44 498.172L1031.44 480.714L1025.54 465.866L1016.57 450.974L1004.67 439.589L991.642 428.915L975.985 419.37L960.642 413.93L943.786 411.288L927.081 409.022L909.239 410.974L892.146 414.083L875.781 418.969L860.299 424.529L845.158 432.966L833.563 444.259L820.318 456.948L811.531 470.761L804.436 486.276L799 495.5L792 502.5H784L778 495.5L772.524 485.426L762.507 470.681L750.569 456.146L739.381 442.786L728.051 430.477L715.275 419.445L699.461 410.606L684.647 403.118L669.821 396.58L651.319 391.991L634.603 391.209L618.26 390.949L600.452 395.195L584.445 400.366L568.169 406.929L552.884 414.231L539.573 424.595L524.322 435.802L512.207 446.535L500.244 458.029L489.182 470.467L477.466 483.113L466.292 496.827L456.353 510.845L446.629 524.847L437.19 540.924L426.979 555.732L418.604 570.476L411.252 585.916L402.793 600.254L394.836 614.758L387.151 629.97L377.125 645.603L367.92 658.047L356.354 672.375L343.176 683.284L329.6 691.622L314.539 700.044L298.053 706.031L280.532 709.994L264.158 711.618L247.298 712.667L230.227 709.659L213.019 705.873L196.941 701.001L181.489 694.673L165.569 686.118L152.153 678.501L137.568 668L125.201 655.632L112.802 644.045L101.704 632.237L92.2468 616.377L84.2334 602.814L76.5948 586.973L69.6398 570.336L65.4481 553.924L63.1071 537.913L63.6002 519.947L65.9764 503.354L68.841 485.656L74.697 469.496L81.3861 454.697L90.7349 440.472L100.48 427.29L112.602 413.391L124.694 403.223L138.775 391.967L151.488 381.033L165.796 372.421L181.223 363.275M1087.44 702.635L1097.54 716.981L1105.19 732.87L1113.74 748.095L1120.69 766.338L1124.6 784.461L1127.27 802.673L1129.93 820.131L1129.16 838.642L1125.48 856.119L1122.56 873.8L1114.35 890.843L1106.66 906.036L1097.37 921.509L1085.27 933.238L1071.34 943.277L1054.88 949.223L1037.45 953.316L1019.71 951.088L1002.96 950.546L984.786 945.068L969.568 941.087L951.784 934.107M523.323 438.632L506.816 446.683L489.806 453.288L471.936 454.368L454.763 453.745L437.751 451.719L420.555 445.628L404.82 438.921L389.616 428.218L376.374 416.485L366.865 400.532L359.9 385.205L355.951 368.147L354.17 349.224L357.553 332.038L362.87 314.377L371.095 299.478L379.4 282.939L385.869 267.326L388.875 250.438L389.086 231.906L389.142 215.055L382.924 198.274L376.247 181.392L366.631 167.417L353.131 155.668L341.289 143.711L328.07 131.02L314.235 122.316L297.834 113.873L283.211 104.09L266.625 97.0508M391.561 625.82L384.339 641.331L378.328 658.934L373.927 677.136L373.846 694.479L374.433 713.379L375.925 730.899L381.47 748.26L386.448 765.219L393.708 783.295L403.454 798.105L412.924 812.899L426.213 825.852L437.957 840.324L451.26 851.089L466.964 862.588L481.778 872.166L499.319 878.043L517.184 882.504L534.669 886.483L553.152 885.153L571.311 882.238L587.254 875.862M821.239 458.13L830.942 442.175L841.036 429.482L851.725 415.308L863.731 399.635L873.021 386.577L881.448 370.238L886.193 352.659L890.078 335.149L890.743 318.908L888.878 301.215L885.508 282.28L882.401 265.442L875.642 248.569L867.306 234.541L856.502 219.649L844.307 206.304L831.119 193.53L818.286 182.928L803.962 171.401L787.791 162.861L772.48 153.501L755.965 146.32L740.483 137.587L724.491 131.076M1194.11 364.706L1196.06 345.89L1198.73 328.793L1199.73 311.331L1197.58 295.557L1196.49 277.879L1194.25 260.431L1188.42 244.1L1180.78 227.381L1171.59 214.247L1160.01 201.462L1146.18 191.966L1129.63 184.793L1112.14 181.986L1095.76 181.377L1078.17 181.043L1061.13 183.681L1045.55 189.313L1029.78 194.718L1014.48 201.993L1000.78 210.77L987.137 221.887L974.219 233.609L963.375 247.201L953.067 259.016L943.721 274.154L932.811 288.128L922.798 301.827L913.346 316.468L905.155 331.102L897.152 344.519L888.682 359.817L879.771 373.51M1396.81 658.84L1408.02 643.657L1420.93 634.956L1437.75 629.138L1455.05 626.916L1474.05 629.505L1491.77 633.066L1507.04 638.194L1521.74 647.929L1536.03 657.255L1548.83 670.038L1557.39 684.966L1562.48 702.351L1566.77 719.316L1566.66 737.001L1563.23 753.913L1558.66 770.93L1552.44 787.755L1544.52 802.761L1534.84 818.348L1525.91 831.749L1515.07 846.106" stroke="#9FA7C2" stroke-width="4.91005" stroke-linejoin="bevel"/>
<path fill-rule="evenodd" clip-rule="evenodd" d="M739.765 309.742L727.148 324.27L717.628 340.164L710.78 358.045L706.551 376.772L714.886 395.67L726.286 412.922L742.263 427.007L756.054 410.934L769.261 393.862L772.763 374.365L768.801 354.568L760.184 338.849L750.017 323.567L739.765 309.742Z" fill="#9FA7C2"/>
<path fill-rule="evenodd" clip-rule="evenodd" d="M595.721 285.949L591.62 306.424L589.942 328.376L595.084 349.265L608.127 362.172L624.476 369.545L641.831 375.562L648.366 358.698L649.031 340.575L645.36 322.557L632.085 307.554L613.555 295.029L595.721 285.949Z" fill="#9FA7C2"/>
<path fill-rule="evenodd" clip-rule="evenodd" d="M506.523 350.031L514.236 373.414L529.087 391.452L549.026 395.432L570.496 391.939L564.993 372.524L552.738 355.296L529.084 349.708L506.523 350.031Z" fill="#9FA7C2"/>
<path fill-rule="evenodd" clip-rule="evenodd" d="M465.349 266.431L447.087 259.521L427.467 257.171L409.877 260.938L392.09 277.048L383.925 298.495L406.161 307.442L428.547 306.712L444.906 296.43L456.455 281.38L465.349 266.431Z" fill="#9FA7C2"/>
<path fill-rule="evenodd" clip-rule="evenodd" d="M768.025 227.069L788.245 239.508L812.766 246.076L831.183 236.736L844.221 221.539L828.456 208.739L807.969 203.176L786.74 213.339L768.025 227.069Z" fill="#9FA7C2"/>
<path fill-rule="evenodd" clip-rule="evenodd" d="M417.449 337.235L393.806 346.661L375.639 363.028L372.785 382.081L378.543 403.081L397.611 396.335L413.481 383.892L419.295 360.416L417.449 337.235Z" fill="#9FA7C2"/>
<path fill-rule="evenodd" clip-rule="evenodd" d="M804.311 334.902L799.396 352.361L796.45 371.853L799.86 391.049L814.867 408.616L837.472 416.775L846.021 395.825L845.293 370.382L834.022 355.076L820.06 344.73L804.311 334.902Z" fill="#9FA7C2"/>
<path fill-rule="evenodd" clip-rule="evenodd" d="M1158.01 125.739L1132.85 122.353L1110.16 127.879L1096.19 144.556L1092.64 165.878L1112.98 169.856L1132.94 164.741L1147.65 147.445L1158.01 125.739Z" fill="#9FA7C2"/>
<path fill-rule="evenodd" clip-rule="evenodd" d="M1113.09 243.072L1105.06 219.401L1090.95 200.776L1069.35 194.744L1050.82 198.633L1055.24 219.475L1065.32 235.607L1088.93 242.536L1113.09 243.072Z" fill="#9FA7C2"/>
<path fill-rule="evenodd" clip-rule="evenodd" d="M1265.13 253.686L1251.62 232.881L1234.84 217.737L1214.11 216.832L1195.05 225.77L1203.47 244.246L1218.56 257.133L1243.11 258.427L1265.13 253.686Z" fill="#9FA7C2"/>
<path fill-rule="evenodd" clip-rule="evenodd" d="M1253.52 377.226L1250.57 357.096L1240.32 339.771L1225.57 331.831L1208.14 333.927L1216.8 366.285L1235.68 373.928L1253.52 377.226Z" fill="#9FA7C2"/>
<path fill-rule="evenodd" clip-rule="evenodd" d="M1138.57 276.634L1155.25 263.172L1166.95 247.068L1164.39 229.688L1155.63 213.961L1140.83 223.274L1131.38 238.126L1133.46 258.002L1138.57 276.634Z" fill="#9FA7C2"/>
<path fill-rule="evenodd" clip-rule="evenodd" d="M1318.57 800.347L1304.85 778.779L1285.26 764.438L1265.52 766.08L1246.4 775.021L1255.47 792.47L1272.77 805.831L1295.58 805.72L1318.57 800.347Z" fill="#9FA7C2"/>
<path fill-rule="evenodd" clip-rule="evenodd" d="M927.457 858.068L923.175 882.352L928.451 905.688L944.759 918.557L966.099 924.071L969.218 903.795L965.481 883.429L947.204 867.458L927.457 858.068Z" fill="#9FA7C2"/>
<path fill-rule="evenodd" clip-rule="evenodd" d="M1420.29 734.049L1404.52 715.943L1384.03 703.375L1362.76 706.458L1345.61 717.528L1357.85 734.386L1375.42 745.714L1399.1 742.679L1420.29 734.049Z" fill="#9FA7C2"/>
<path fill-rule="evenodd" clip-rule="evenodd" d="M1488.96 689.934L1482.78 665.88L1469.5 646.203L1450.21 639.734L1429.04 642.372L1433.04 664.229L1443.67 680.833L1465.66 687.935L1488.96 689.934Z" fill="#9FA7C2"/>
<path fill-rule="evenodd" clip-rule="evenodd" d="M1491.12 772.096L1508.41 781.536L1528.51 783.061L1550.61 760.531L1520.91 749.697L1502.91 760.338L1491.12 772.096Z" fill="#9FA7C2"/>
<path fill-rule="evenodd" clip-rule="evenodd" d="M1322.36 625.038L1307.48 637.417L1295 654.397L1285.11 671.943L1287.35 690.127L1293.99 703.57L1304.87 718.411L1323.9 703.157L1337.86 681.844L1336.38 661.141L1330.58 642.285L1322.36 625.038Z" fill="#9FA7C2"/>
<path fill-rule="evenodd" clip-rule="evenodd" d="M1317.76 554.601L1325.75 573.318L1337.85 588.771L1353.61 602.173L1370.92 605.188L1388.1 603.042L1403.5 595.51L1395.54 572.391L1377.55 554.122L1357.47 549.446L1336.06 551.288L1317.76 554.601Z" fill="#9FA7C2"/>
<path fill-rule="evenodd" clip-rule="evenodd" d="M1289.77 447.105L1298.22 465.612L1309.9 483.106L1325.77 495.241L1340.63 498.396L1358.88 495.286L1375.53 487.963L1365.2 464.873L1347.16 446.004L1329.62 441.629L1309.19 443.576L1289.77 447.105Z" fill="#9FA7C2"/>
<path fill-rule="evenodd" clip-rule="evenodd" d="M1291.36 337.684L1299.53 356.221L1314.82 369.411L1330.38 370.6L1347.33 365.521L1330.28 337.666L1309.77 334.767L1291.36 337.684Z" fill="#9FA7C2"/>
<path fill-rule="evenodd" clip-rule="evenodd" d="M1562.03 536.617L1541.11 538.184L1522.23 545.706L1505.18 555.877L1498.02 571.059L1495.63 587.483L1496.1 605.022L1522 603.9L1545.03 591.83L1554.63 576.375L1560.27 555.809L1562.03 536.617Z" fill="#9FA7C2"/>
<path fill-rule="evenodd" clip-rule="evenodd" d="M1458.49 438.227L1440.83 445.99L1424.22 458.605L1412.38 474.147L1408.78 491.056L1412.88 507.654L1419.4 524.803L1443.03 513.846L1461.49 495.775L1463.24 476.794L1461.97 455.662L1458.49 438.227Z" fill="#9FA7C2"/>
<path fill-rule="evenodd" clip-rule="evenodd" d="M1436.61 355.023L1418.16 355.118L1400.47 359.065L1385.41 368.224L1375.47 387.544L1373.66 410.141L1395.61 411.2L1416.61 403.734L1426.72 387.148L1431.63 371.541L1436.61 355.023Z" fill="#9FA7C2"/>
<path fill-rule="evenodd" clip-rule="evenodd" d="M1341.52 218.764L1334.03 234.913L1329.89 253.173L1328.33 272.409L1343.21 290.967L1363.47 303.527L1374.2 283.777L1376.48 260.968L1366.32 243.234L1354.19 230.131L1341.52 218.764Z" fill="#9FA7C2"/>
<path fill-rule="evenodd" clip-rule="evenodd" d="M1440.81 164.277L1427.71 175.374L1417.16 189.323L1409.13 204.418L1415.05 227.138L1426.47 245.708L1444.93 232.389L1455.27 211.629L1454.13 195.621L1448.42 178.363L1440.81 164.277Z" fill="#9FA7C2"/>
<path fill-rule="evenodd" clip-rule="evenodd" d="M1570.1 213.858L1550.38 202.196L1524.97 195.86L1507.88 205.444L1494.15 220.333L1509.59 233.453L1529.75 238.65L1553.16 227.721L1570.1 213.858Z" fill="#9FA7C2"/>
<path fill-rule="evenodd" clip-rule="evenodd" d="M1464 107.887L1462.7 127.463L1470.14 148.189L1486.2 155.546L1501.06 158.555L1497.71 125.904L1481.28 114.377L1464 107.887Z" fill="#9FA7C2"/>
<path fill-rule="evenodd" clip-rule="evenodd" d="M1491.32 298.836L1478.13 287.854L1463.88 278.717L1448.17 272.211L1426.28 279.285L1410.02 293.149L1424.9 308.388L1445.77 318.183L1460.94 314.339L1476.74 306.792L1491.32 298.836Z" fill="#9FA7C2"/>
<path fill-rule="evenodd" clip-rule="evenodd" d="M1008.07 130.288L988.462 144.705L973.279 165.256L976.151 185.942L985.424 205.538L1003.91 193.41L1015.96 177.449L1014.77 153.601L1008.07 130.288Z" fill="#9FA7C2"/>
<path fill-rule="evenodd" clip-rule="evenodd" d="M1058.89 279.456L1047.34 264.231L1032.65 250.637L1013.55 242.588L990.375 247.156L969.633 261.393L982.119 281.683L1004.71 293.277L1024.34 293.308L1041.88 286.596L1058.89 279.456Z" fill="#9FA7C2"/>
<path fill-rule="evenodd" clip-rule="evenodd" d="M441.44 155.993L420.064 163.913L400.542 177.645L396.179 196.207L400.431 215.461L418.182 210.727L434.897 199.687L440.917 176.653L441.44 155.993Z" fill="#9FA7C2"/>
<path fill-rule="evenodd" clip-rule="evenodd" d="M712.835 70.7084L709.735 89.2256L711.847 107.403L738.65 124.01L741.903 92.7093L728.555 79.3897L712.835 70.7084Z" fill="#9FA7C2"/>
<path fill-rule="evenodd" clip-rule="evenodd" d="M717.591 189.066L736.74 192.867L754.433 192.344L772.27 166.299L742.118 161.211L726.985 175.514L717.591 189.066Z" fill="#9FA7C2"/>
<path fill-rule="evenodd" clip-rule="evenodd" d="M811.92 107.956L803.126 123.89L798.84 141.747L818.987 166.756L832.134 138.292L823.359 120.52L811.92 107.956Z" fill="#9FA7C2"/>
<path fill-rule="evenodd" clip-rule="evenodd" d="M1474.45 553.439L1455.86 556.095L1438.99 565.725L1434.39 597.073L1463.55 588.463L1472.39 571.756L1474.45 553.439Z" fill="#9FA7C2"/>
<path fill-rule="evenodd" clip-rule="evenodd" d="M1602.66 626.659L1583.08 616.725L1562.05 614.204L1546.43 623.079L1535.16 639.529L1551.97 648.149L1569.72 652.256L1587.79 641.624L1602.66 626.659Z" fill="#9FA7C2"/>
<path fill-rule="evenodd" clip-rule="evenodd" d="M1549.3 61.9143L1533.4 71.8433L1520.97 88.1389L1530.52 118.07L1553.03 97.7053L1553.93 79.167L1549.3 61.9143Z" fill="#9FA7C2"/>
<path fill-rule="evenodd" clip-rule="evenodd" d="M1439.82 5L1438.86 23.6776L1445.56 41.9565L1475.37 52.3527L1472.37 21.9544L1456.32 11.5805L1439.82 5Z" fill="#9FA7C2"/>
<path fill-rule="evenodd" clip-rule="evenodd" d="M1142.17 335.985L1163.27 334.262L1181.04 324.709L1188.86 307.225L1189.97 291.181L1171.47 291.712L1155.38 298.053L1145.32 316.815L1142.17 335.985Z" fill="#9FA7C2"/>
<path fill-rule="evenodd" clip-rule="evenodd" d="M1521.43 723.639L1534.25 708.227L1541.89 690.439L1535.77 674.556L1524.13 659.792L1513.43 672.418L1505.84 688.287L1512.37 707.908L1521.43 723.639Z" fill="#9FA7C2"/>
<path fill-rule="evenodd" clip-rule="evenodd" d="M1625.05 738.288L1620.2 720.833L1608.25 706.08L1576.67 705.888L1589.86 733.354L1606.42 738.626L1625.05 738.288Z" fill="#9FA7C2"/>
<path fill-rule="evenodd" clip-rule="evenodd" d="M1575.4 853.974L1583.98 837.465L1583.24 818.259L1558.49 798.265L1551.74 827.721L1560.77 842.497L1575.4 853.974Z" fill="#9FA7C2"/>
<path fill-rule="evenodd" clip-rule="evenodd" d="M1454.93 834.344L1469.68 844.87L1488.24 850.229L1513.07 831.254L1485.58 817.446L1469.44 823.91L1454.93 834.344Z" fill="#9FA7C2"/>
<path fill-rule="evenodd" clip-rule="evenodd" d="M534.676 830.709L514.777 819.851L491.444 815.848L475.992 825.805L462.913 843.364L480.646 852.063L499.617 856.209L518.666 845.375L534.676 830.709Z" fill="#9FA7C2"/>
<path fill-rule="evenodd" clip-rule="evenodd" d="M537.975 959.148L540.322 933.043L534.646 908.186L518.695 896.4L496.894 891.692L492.805 911.412L497.23 932.502L515.167 948.889L537.975 959.148Z" fill="#9FA7C2"/>
<path fill-rule="evenodd" clip-rule="evenodd" d="M400.405 912.717L412.357 896.938L421.363 880.01L427.254 861.742L418.094 838.773L400.341 820.633L383.114 839.001L375.223 861.272L380.172 881.657L389.832 897.014L400.405 912.717Z" fill="#9FA7C2"/>
<path fill-rule="evenodd" clip-rule="evenodd" d="M621.595 816.91L600.623 820.345L581.485 830.985L574.985 847.417L574.344 866.708L593.597 864.118L610.12 857.12L617.998 837.844L621.595 816.91Z" fill="#9FA7C2"/>
<path fill-rule="evenodd" clip-rule="evenodd" d="M457.95 664.812L464.692 646.514L468.238 627.366L468.345 607.671L453.382 588.122L429.764 576.287L419.583 597.439L418.043 622.699L428.863 639.023L442.557 652.752L457.95 664.812Z" fill="#9FA7C2"/>
<path fill-rule="evenodd" clip-rule="evenodd" d="M306.404 799.795L327.004 792.706L344.631 780.476L362.039 764.787L365.614 746.387L362.446 727.298L357.557 709.701L339.944 714.358L323.983 722.437L310.842 736.429L304.423 757.708L304.572 778.703L306.404 799.795Z" fill="#9FA7C2"/>
<path fill-rule="evenodd" clip-rule="evenodd" d="M480.873 775.483L473.088 756.377L458.669 740.015L444.742 726.037L426.434 722.516L408.342 726.22L393.189 732.51L397.915 748.479L406.911 763.758L421.317 775.969L440.309 779.7L461.903 779.691L480.873 775.483Z" fill="#9FA7C2"/>
<path fill-rule="evenodd" clip-rule="evenodd" d="M560.5 562.472L570.887 546.07L578.563 528.279L582.997 508.884L583.73 489.618L575.085 470.629L559.873 454.271L539.82 443.002L528.659 460.635L518.725 479.148L516.083 500.43L523.808 519.035L534.186 536.368L547.346 549.889L560.5 562.472Z" fill="#9FA7C2"/>
<path fill-rule="evenodd" clip-rule="evenodd" d="M1030.54 336.258L1010.67 333.085L992.935 332.031L973.185 333.719L952.987 338.61L938.495 355.113L930.906 373.77L925.027 396.004L945.468 401.578L967.594 403.218L987.725 397.647L1002.72 385.599L1014.47 369.023L1022.5 352.456L1030.54 336.258Z" fill="#9FA7C2"/>
<path fill-rule="evenodd" clip-rule="evenodd" d="M1133.81 433.531L1119.51 422.327L1105.43 414.996L1087.95 407.967L1071.05 403.46L1051.96 410.17L1035.81 423.678L1024.38 437.865L1038.82 451.503L1054.67 462.355L1073.24 465.296L1091.41 460.67L1106.08 452.276L1121.2 443.013L1133.81 433.531Z" fill="#9FA7C2"/>
<path fill-rule="evenodd" clip-rule="evenodd" d="M1139.08 585.173L1135.11 567.653L1129.66 550.151L1121.39 534.847L1109.16 521.852L1092.22 515.586L1072.21 514.803L1052.44 518.178L1055.03 537.442L1060.53 556.592L1071.99 571.307L1087.03 580.129L1105.43 583.07L1122.26 584.406L1139.08 585.173Z" fill="#9FA7C2"/>
<path fill-rule="evenodd" clip-rule="evenodd" d="M1174.18 665.784L1165.76 651.097L1153.38 638.443L1140.38 627.626L1124.25 617.9L1105.47 618.966L1086.87 625.216L1069.4 633.895L1078.05 652.329L1090.98 667.602L1107.73 677.521L1125.55 678.707L1141.36 674.627L1159.33 670.908L1174.18 665.784Z" fill="#9FA7C2"/>
<path fill-rule="evenodd" clip-rule="evenodd" d="M1240.1 692.278L1221.85 693.464L1200.49 697.491L1184.39 706.074L1174.06 729.87L1171.96 754.154L1197.6 754.056L1218.35 745.496L1229.27 729.116L1235.95 708.866L1240.1 692.278Z" fill="#9FA7C2"/>
<path fill-rule="evenodd" clip-rule="evenodd" d="M1212.69 881.412L1209.85 861.399L1203.48 842.198L1191 825.615L1176.67 817.194L1158.19 817.001L1140.61 817.749L1141.45 835.394L1146.24 851.562L1155.72 866.938L1173.82 876.029L1192.65 879.095L1212.69 881.412Z" fill="#9FA7C2"/>
<path fill-rule="evenodd" clip-rule="evenodd" d="M1100.3 1017.4L1112.83 1004.84L1124.01 988.447L1131.69 972.14L1125.59 948.896L1111.1 930.885L1092.88 945.015L1082.71 967.076L1085.39 984.529L1091.21 1003.06L1100.3 1017.4Z" fill="#9FA7C2"/>
<path fill-rule="evenodd" clip-rule="evenodd" d="M953.485 1020.94L971.541 1022.17L990.72 1017.97L1007.04 1009.17L1018.03 990.597L1020.92 965.691L998.312 964.479L975.752 971.14L964.952 987.239L958.401 1005L953.485 1020.94Z" fill="#9FA7C2"/>
<path fill-rule="evenodd" clip-rule="evenodd" d="M1030.26 885.968L1052.46 889.497L1073.61 887.135L1093.43 881.99L1106.67 868.799L1113.32 851.885L1117.14 832.477L1100.1 828.602L1081.26 827.265L1063.82 832.532L1048.47 848.727L1038.51 866.094L1030.26 885.968Z" fill="#9FA7C2"/>
<path fill-rule="evenodd" clip-rule="evenodd" d="M1008.75 785.074L1024.06 777.637L1039.77 769.717L1053.97 757.13L1063.49 743.835L1067.4 725.6L1064.06 704.412L1055.55 686.066L1036.93 693.828L1020.08 701.659L1007.41 717.699L1002.84 734.647L1003.25 752.36L1005.74 768.977L1008.75 785.074Z" fill="#9FA7C2"/>
<path fill-rule="evenodd" clip-rule="evenodd" d="M438.221 362.052L431.399 378.961L428.381 399.266L431.063 415.869L447.562 433.683L468.463 443.545L477.098 423.033L477.326 399.369L467.242 382.71L452.686 371.081L438.221 362.052Z" fill="#9FA7C2"/>
<path fill-rule="evenodd" clip-rule="evenodd" d="M933.674 199.207L910.103 209.439L891.712 225.041L891.133 245.919L894.384 266.512L915.104 261.071L929.891 246.956L936.443 222.184L933.674 199.207Z" fill="#9FA7C2"/>
<path fill-rule="evenodd" clip-rule="evenodd" d="M262.553 324.383L268.579 345.509L276.737 364.376L291.186 378.771L308.427 385.076L326.171 385.405L344.975 381.134L340.985 362.895L335.125 347.112L323.853 332.617L304.018 326.677L281.765 324.477L262.553 324.383Z" fill="#9FA7C2"/>
<path fill-rule="evenodd" clip-rule="evenodd" d="M322.076 222.202L324.906 244.727L336.028 262.165L354.656 269.294L373.737 267.995L372.064 248.63L361.783 232.879L341.906 225.037L322.076 222.202Z" fill="#9FA7C2"/>
<path fill-rule="evenodd" clip-rule="evenodd" d="M283.156 160.762L297.667 175.69L319.213 187.919L335.659 183.278L351.464 170.742L340.491 157.451L323.75 149.174L301.503 152.035L283.156 160.762Z" fill="#9FA7C2"/>
<path fill-rule="evenodd" clip-rule="evenodd" d="M212.971 114.918L227.452 125.33L245.518 131.598L269.71 114.581L242.901 99.6291L225.625 105.326L212.971 114.918Z" fill="#9FA7C2"/>
<path fill-rule="evenodd" clip-rule="evenodd" d="M319.238 58.768L309.946 77.8463L307.798 97.722L317.496 111.52L333.554 121.819L341.125 107.023L343.278 89.0274L332.856 71.1224L319.238 58.768Z" fill="#9FA7C2"/>
<path fill-rule="evenodd" clip-rule="evenodd" d="M151.721 301.561L138.227 317.905L129.966 336.038L135.515 353.073L146.055 366.446L158.496 354.543L166.596 339.605L161.523 318.023L151.721 301.561Z" fill="#9FA7C2"/>
<path fill-rule="evenodd" clip-rule="evenodd" d="M184.385 437.671L163.546 423.268L141.691 416.526L122.248 426.263L107.983 441.109L123.286 454.116L142.475 459.749L164.791 450.511L184.385 437.671Z" fill="#9FA7C2"/>
<path fill-rule="evenodd" clip-rule="evenodd" d="M15.3491 386.791L11.0475 405.285L9.71142 426.041L15.8389 445.863L33.2979 462.3L57.493 469.899L63.9261 445.96L62.4146 421.348L47.9352 407.066L32.9719 395.592L15.3491 386.791Z" fill="#9FA7C2"/>
<path fill-rule="evenodd" clip-rule="evenodd" d="M135.606 505.863L117.467 510.471L99.5839 517.54L85.6267 529.616L79.1211 550.87L82.7444 574.295L105.526 569.865L125.601 557.735L133.024 540.618L135.623 523.576L135.606 505.863Z" fill="#9FA7C2"/>
<path fill-rule="evenodd" clip-rule="evenodd" d="M4 641.434L18.3693 654.829L36.8449 666.805L56.0086 672.533L73.2965 669.948L87.9166 658.841L99.3309 647.057L87.8654 633.475L74.2509 622.89L58.185 618.625L39.6376 622.562L20.2514 630.868L4 641.434Z" fill="#9FA7C2"/>
<path fill-rule="evenodd" clip-rule="evenodd" d="M188.056 578.768L175.606 594.823L163.462 614.713L159.527 637.326L165.78 653.798L177.254 668.889L190.714 681.463L203.539 667.707L213.044 652.094L217.461 633.494L210.601 614.088L199.251 594.326L188.056 578.768Z" fill="#9FA7C2"/>
<path fill-rule="evenodd" clip-rule="evenodd" d="M157.25 796.922L178.355 795.326L200.05 789.311L220.217 778.924L229.967 761.023L232.37 742.007L232.236 723.42L213.95 724.076L194.834 725.672L178.249 737.006L166.553 755.138L161.427 777.463L157.25 796.922Z" fill="#9FA7C2"/>
<path fill-rule="evenodd" clip-rule="evenodd" d="M623.685 473.772L645.305 461.417L662.48 445.631L663.431 423.575L656.396 404.642L638.406 411.941L623.882 426.173L620.582 450.486L623.685 473.772Z" fill="#9FA7C2"/>
<path fill-rule="evenodd" clip-rule="evenodd" d="M815.886 275.29L824.707 298.206L841.235 316.683L861.191 318.707L881.839 314.011L875.195 295.415L861.695 278.606L839.09 273.066L815.886 275.29Z" fill="#9FA7C2"/>
<path fill-rule="evenodd" clip-rule="evenodd" d="M955.116 479.614L951.142 455.017L938.375 433.624L919.521 427.29L898.361 428.333L899.98 448.623L910.009 466.213L932.487 477.228L955.116 479.614Z" fill="#9FA7C2"/>
<path fill-rule="evenodd" clip-rule="evenodd" d="M314.604 485.757L330.479 496.231L345.964 503.524L364.405 508.618L383.29 508.661L400.85 501.269L415.982 485.251L427.98 469.526L412.465 456.097L393.682 447.854L372.879 444.807L356.815 451.994L339.788 462.295L327.283 473.068L314.604 485.757Z" fill="#9FA7C2"/>
<path fill-rule="evenodd" clip-rule="evenodd" d="M258.472 610.474L269.758 623.857L282.697 636.659L296.594 648.287L314.909 656.377L334.656 652.875L353.454 645.16L370.693 633.331L359.363 616.051L344.925 602.512L327.025 592.825L308.703 591.954L290.457 598.021L274.696 603.603L258.472 610.474Z" fill="#9FA7C2"/>
<path fill-rule="evenodd" clip-rule="evenodd" d="M170.201 784.948L185.46 768.88L200.27 755.633L216.702 741.266" fill="#9FA7C2"/>
<path fill-rule="evenodd" clip-rule="evenodd" d="M191.338 665.174L188.846 643.356L188.354 621.94L187.11 603.173" fill="#9FA7C2"/>
<path fill-rule="evenodd" clip-rule="evenodd" d="M50.4268 453.808L37.7627 431.537L27.881 408.716" fill="#9FA7C2"/>
<path fill-rule="evenodd" clip-rule="evenodd" d="M1155.17 831.1L1168.6 841.873L1181.81 854.493L1194.62 866.328" fill="#9FA7C2"/>
<path fill-rule="evenodd" clip-rule="evenodd" d="M1513.08 218.138L1529.92 215.323L1546.9 215.32" fill="#9FA7C2"/>
<path fill-rule="evenodd" clip-rule="evenodd" d="M1386.26 587.673L1370.16 579.572L1354.95 571.567L1339.76 565.127" fill="#9FA7C2"/>
<path fill-rule="evenodd" clip-rule="evenodd" d="M1427.13 507.354L1435.39 483.544L1446.85 462.262" fill="#9FA7C2"/>
<path fill-rule="evenodd" clip-rule="evenodd" d="M1510.26 593.309L1519.59 578.859L1531.91 565.309L1544.08 553.854" fill="#9FA7C2"/>
<path fill-rule="evenodd" clip-rule="evenodd" d="M1358.08 287.533L1352.16 264.201L1346.81 241.032" fill="#9FA7C2"/>
<path fill-rule="evenodd" clip-rule="evenodd" d="M739.765 309.742L727.148 324.27L717.628 340.164L710.78 358.045L706.551 376.772L714.886 395.67L726.286 412.922L742.263 427.007L756.054 410.934L769.261 393.862L772.763 374.365L768.801 354.568L760.184 338.849L750.017 323.567L739.765 309.742Z" fill="#9FA7C2"/>
<path fill-rule="evenodd" clip-rule="evenodd" d="M595.721 285.949L591.62 306.424L589.942 328.376L595.084 349.265L608.127 362.172L624.476 369.545L641.831 375.562L648.366 358.698L649.031 340.575L645.36 322.557L632.085 307.554L613.555 295.029L595.721 285.949Z" fill="#9FA7C2"/>
<path fill-rule="evenodd" clip-rule="evenodd" d="M506.523 350.031L514.236 373.414L529.087 391.452L549.026 395.432L570.496 391.939L564.993 372.524L552.738 355.296L529.084 349.708L506.523 350.031Z" fill="#9FA7C2"/>
<path fill-rule="evenodd" clip-rule="evenodd" d="M465.349 266.431L447.087 259.521L427.467 257.171L409.877 260.938L392.09 277.048L383.925 298.495L406.161 307.442L428.547 306.712L444.906 296.43L456.455 281.38L465.349 266.431Z" fill="#9FA7C2"/>
<path fill-rule="evenodd" clip-rule="evenodd" d="M768.025 227.069L788.245 239.508L812.766 246.076L831.183 236.736L844.221 221.539L828.456 208.739L807.969 203.176L786.74 213.339L768.025 227.069Z" fill="#9FA7C2"/>
<path fill-rule="evenodd" clip-rule="evenodd" d="M417.449 337.235L393.806 346.661L375.639 363.028L372.785 382.081L378.543 403.081L397.611 396.335L413.481 383.892L419.295 360.416L417.449 337.235Z" fill="#9FA7C2"/>
<path fill-rule="evenodd" clip-rule="evenodd" d="M804.311 334.902L799.396 352.361L796.45 371.853L799.86 391.049L814.867 408.616L837.472 416.775L846.021 395.825L845.293 370.382L834.022 355.076L820.06 344.73L804.311 334.902Z" fill="#9FA7C2"/>
<path fill-rule="evenodd" clip-rule="evenodd" d="M1158.01 125.739L1132.85 122.353L1110.16 127.879L1096.19 144.556L1092.64 165.878L1112.98 169.856L1132.94 164.741L1147.65 147.445L1158.01 125.739Z" fill="#9FA7C2"/>
<path fill-rule="evenodd" clip-rule="evenodd" d="M1113.09 243.072L1105.06 219.401L1090.95 200.776L1069.35 194.744L1050.82 198.633L1055.24 219.475L1065.32 235.607L1088.93 242.536L1113.09 243.072Z" fill="#9FA7C2"/>
<path fill-rule="evenodd" clip-rule="evenodd" d="M1265.13 253.686L1251.62 232.881L1234.84 217.737L1214.11 216.832L1195.05 225.77L1203.47 244.246L1218.56 257.133L1243.11 258.427L1265.13 253.686Z" fill="#9FA7C2"/>
<path fill-rule="evenodd" clip-rule="evenodd" d="M1253.52 377.226L1250.57 357.096L1240.32 339.771L1225.57 331.831L1208.14 333.927L1216.8 366.285L1235.68 373.928L1253.52 377.226Z" fill="#9FA7C2"/>
<path fill-rule="evenodd" clip-rule="evenodd" d="M1138.57 276.634L1155.25 263.172L1166.95 247.068L1164.39 229.688L1155.63 213.961L1140.83 223.274L1131.38 238.126L1133.46 258.002L1138.57 276.634Z" fill="#9FA7C2"/>
<path fill-rule="evenodd" clip-rule="evenodd" d="M1318.57 800.347L1304.85 778.779L1285.26 764.438L1265.52 766.08L1246.4 775.021L1255.47 792.47L1272.77 805.831L1295.58 805.72L1318.57 800.347Z" fill="#9FA7C2"/>
<path fill-rule="evenodd" clip-rule="evenodd" d="M927.457 858.068L923.175 882.352L928.451 905.688L944.759 918.557L966.099 924.071L969.218 903.795L965.481 883.429L947.204 867.458L927.457 858.068Z" fill="#9FA7C2"/>
<path fill-rule="evenodd" clip-rule="evenodd" d="M1420.29 734.049L1404.52 715.943L1384.03 703.375L1362.76 706.458L1345.61 717.528L1357.85 734.386L1375.42 745.714L1399.1 742.679L1420.29 734.049Z" fill="#9FA7C2"/>
<path fill-rule="evenodd" clip-rule="evenodd" d="M1488.96 689.934L1482.78 665.88L1469.5 646.203L1450.21 639.734L1429.04 642.372L1433.04 664.229L1443.67 680.833L1465.66 687.935L1488.96 689.934Z" fill="#9FA7C2"/>
<path fill-rule="evenodd" clip-rule="evenodd" d="M1491.12 772.096L1508.41 781.536L1528.51 783.061L1550.61 760.531L1520.91 749.697L1502.91 760.338L1491.12 772.096Z" fill="#9FA7C2"/>
<path fill-rule="evenodd" clip-rule="evenodd" d="M1322.36 625.038L1307.48 637.417L1295 654.397L1285.11 671.943L1287.35 690.127L1293.99 703.57L1304.87 718.411L1323.9 703.157L1337.86 681.844L1336.38 661.141L1330.58 642.285L1322.36 625.038Z" fill="#9FA7C2"/>
<path fill-rule="evenodd" clip-rule="evenodd" d="M1317.76 554.601L1325.75 573.318L1337.85 588.771L1353.61 602.173L1370.92 605.188L1388.1 603.042L1403.5 595.51L1395.54 572.391L1377.55 554.122L1357.47 549.446L1336.06 551.288L1317.76 554.601Z" fill="#9FA7C2"/>
<path fill-rule="evenodd" clip-rule="evenodd" d="M1289.77 447.105L1298.22 465.612L1309.9 483.106L1325.77 495.241L1340.63 498.396L1358.88 495.286L1375.53 487.963L1365.2 464.873L1347.16 446.004L1329.62 441.629L1309.19 443.576L1289.77 447.105Z" fill="#9FA7C2"/>
<path fill-rule="evenodd" clip-rule="evenodd" d="M1291.36 337.684L1299.53 356.221L1314.82 369.411L1330.38 370.6L1347.33 365.521L1330.28 337.666L1309.77 334.767L1291.36 337.684Z" fill="#9FA7C2"/>
<path fill-rule="evenodd" clip-rule="evenodd" d="M1562.03 536.617L1541.11 538.184L1522.23 545.706L1505.18 555.877L1498.02 571.059L1495.63 587.483L1496.1 605.022L1522 603.9L1545.03 591.83L1554.63 576.375L1560.27 555.809L1562.03 536.617Z" fill="#9FA7C2"/>
<path fill-rule="evenodd" clip-rule="evenodd" d="M1458.49 438.227L1440.83 445.99L1424.22 458.605L1412.38 474.147L1408.78 491.056L1412.88 507.654L1419.4 524.803L1443.03 513.846L1461.49 495.775L1463.24 476.794L1461.97 455.662L1458.49 438.227Z" fill="#9FA7C2"/>
<path fill-rule="evenodd" clip-rule="evenodd" d="M1436.61 355.023L1418.16 355.118L1400.47 359.065L1385.41 368.224L1375.47 387.544L1373.66 410.141L1395.61 411.2L1416.61 403.734L1426.72 387.148L1431.63 371.541L1436.61 355.023Z" fill="#9FA7C2"/>
<path fill-rule="evenodd" clip-rule="evenodd" d="M1341.52 218.764L1334.03 234.913L1329.89 253.173L1328.33 272.409L1343.21 290.967L1363.47 303.527L1374.2 283.777L1376.48 260.968L1366.32 243.234L1354.19 230.131L1341.52 218.764Z" fill="#9FA7C2"/>
<path fill-rule="evenodd" clip-rule="evenodd" d="M1440.81 164.277L1427.71 175.374L1417.16 189.323L1409.13 204.418L1415.05 227.138L1426.47 245.708L1444.93 232.389L1455.27 211.629L1454.13 195.621L1448.42 178.363L1440.81 164.277Z" fill="#9FA7C2"/>
<path fill-rule="evenodd" clip-rule="evenodd" d="M1570.1 213.858L1550.38 202.196L1524.97 195.86L1507.88 205.444L1494.15 220.333L1509.59 233.453L1529.75 238.65L1553.16 227.721L1570.1 213.858Z" fill="#9FA7C2"/>
<path fill-rule="evenodd" clip-rule="evenodd" d="M1464 107.887L1462.7 127.463L1470.14 148.189L1486.2 155.546L1501.06 158.555L1497.71 125.904L1481.28 114.377L1464 107.887Z" fill="#9FA7C2"/>
<path fill-rule="evenodd" clip-rule="evenodd" d="M1491.32 298.836L1478.13 287.854L1463.88 278.717L1448.17 272.211L1426.28 279.285L1410.02 293.149L1424.9 308.388L1445.77 318.183L1460.94 314.339L1476.74 306.792L1491.32 298.836Z" fill="#9FA7C2"/>
<path fill-rule="evenodd" clip-rule="evenodd" d="M1008.07 130.288L988.462 144.705L973.279 165.256L976.151 185.942L985.424 205.538L1003.91 193.41L1015.96 177.449L1014.77 153.601L1008.07 130.288Z" fill="#9FA7C2"/>
<path fill-rule="evenodd" clip-rule="evenodd" d="M1058.89 279.456L1047.34 264.231L1032.65 250.637L1013.55 242.588L990.375 247.156L969.633 261.393L982.119 281.683L1004.71 293.277L1024.34 293.308L1041.88 286.596L1058.89 279.456Z" fill="#9FA7C2"/>
<path fill-rule="evenodd" clip-rule="evenodd" d="M441.44 155.993L420.064 163.913L400.542 177.645L396.179 196.207L400.431 215.461L418.182 210.727L434.897 199.687L440.917 176.653L441.44 155.993Z" fill="#9FA7C2"/>
<path fill-rule="evenodd" clip-rule="evenodd" d="M712.835 70.7084L709.735 89.2256L711.847 107.403L738.65 124.01L741.903 92.7093L728.555 79.3897L712.835 70.7084Z" fill="#9FA7C2"/>
<path fill-rule="evenodd" clip-rule="evenodd" d="M717.591 189.066L736.74 192.867L754.433 192.344L772.27 166.299L742.118 161.211L726.985 175.514L717.591 189.066Z" fill="#9FA7C2"/>
<path fill-rule="evenodd" clip-rule="evenodd" d="M811.92 107.956L803.126 123.89L798.84 141.747L818.987 166.756L832.134 138.292L823.359 120.52L811.92 107.956Z" fill="#9FA7C2"/>
<path fill-rule="evenodd" clip-rule="evenodd" d="M1474.45 553.439L1455.86 556.095L1438.99 565.725L1434.39 597.073L1463.55 588.463L1472.39 571.756L1474.45 553.439Z" fill="#9FA7C2"/>
<path fill-rule="evenodd" clip-rule="evenodd" d="M1602.66 626.659L1583.08 616.725L1562.05 614.204L1546.43 623.079L1535.16 639.529L1551.97 648.149L1569.72 652.256L1587.79 641.624L1602.66 626.659Z" fill="#9FA7C2"/>
<path fill-rule="evenodd" clip-rule="evenodd" d="M1549.3 61.9143L1533.4 71.8433L1520.97 88.1389L1530.52 118.07L1553.03 97.7053L1553.93 79.167L1549.3 61.9143Z" fill="#9FA7C2"/>
<path fill-rule="evenodd" clip-rule="evenodd" d="M1439.82 5L1438.86 23.6776L1445.56 41.9565L1475.37 52.3527L1472.37 21.9544L1456.32 11.5805L1439.82 5Z" fill="#9FA7C2"/>
<path fill-rule="evenodd" clip-rule="evenodd" d="M1142.17 335.985L1163.27 334.262L1181.04 324.709L1188.86 307.225L1189.97 291.181L1171.47 291.712L1155.38 298.053L1145.32 316.815L1142.17 335.985Z" fill="#9FA7C2"/>
<path fill-rule="evenodd" clip-rule="evenodd" d="M1521.43 723.639L1534.25 708.227L1541.89 690.439L1535.77 674.556L1524.13 659.792L1513.43 672.418L1505.84 688.287L1512.37 707.908L1521.43 723.639Z" fill="#9FA7C2"/>
<path fill-rule="evenodd" clip-rule="evenodd" d="M1625.05 738.288L1620.2 720.833L1608.25 706.08L1576.67 705.888L1589.86 733.354L1606.42 738.626L1625.05 738.288Z" fill="#9FA7C2"/>
<path fill-rule="evenodd" clip-rule="evenodd" d="M1575.4 853.974L1583.98 837.465L1583.24 818.259L1558.49 798.265L1551.74 827.721L1560.77 842.497L1575.4 853.974Z" fill="#9FA7C2"/>
<path fill-rule="evenodd" clip-rule="evenodd" d="M1454.93 834.344L1469.68 844.87L1488.24 850.229L1513.07 831.254L1485.58 817.446L1469.44 823.91L1454.93 834.344Z" fill="#9FA7C2"/>
<path fill-rule="evenodd" clip-rule="evenodd" d="M534.676 830.709L514.777 819.851L491.444 815.848L475.992 825.805L462.913 843.364L480.646 852.063L499.617 856.209L518.666 845.375L534.676 830.709Z" fill="#9FA7C2"/>
<path fill-rule="evenodd" clip-rule="evenodd" d="M537.975 959.148L540.322 933.043L534.646 908.186L518.695 896.4L496.894 891.692L492.805 911.412L497.23 932.502L515.167 948.889L537.975 959.148Z" fill="#9FA7C2"/>
<path fill-rule="evenodd" clip-rule="evenodd" d="M400.405 912.717L412.357 896.938L421.363 880.01L427.254 861.742L418.094 838.773L400.341 820.633L383.114 839.001L375.223 861.272L380.172 881.657L389.832 897.014L400.405 912.717Z" fill="#9FA7C2"/>
<path fill-rule="evenodd" clip-rule="evenodd" d="M621.595 816.91L600.623 820.345L581.485 830.985L574.985 847.417L574.344 866.708L593.597 864.118L610.12 857.12L617.998 837.844L621.595 816.91Z" fill="#9FA7C2"/>
<path fill-rule="evenodd" clip-rule="evenodd" d="M457.95 664.812L464.692 646.514L468.238 627.366L468.345 607.671L453.382 588.122L429.764 576.287L419.583 597.439L418.043 622.699L428.863 639.023L442.557 652.752L457.95 664.812Z" fill="#9FA7C2"/>
<path fill-rule="evenodd" clip-rule="evenodd" d="M306.404 799.795L327.004 792.706L344.631 780.476L362.039 764.787L365.614 746.387L362.446 727.298L357.557 709.701L339.944 714.358L323.983 722.437L310.842 736.429L304.423 757.708L304.572 778.703L306.404 799.795Z" fill="#9FA7C2"/>
<path fill-rule="evenodd" clip-rule="evenodd" d="M480.873 775.483L473.088 756.377L458.669 740.015L444.742 726.037L426.434 722.516L408.342 726.22L393.189 732.51L397.915 748.479L406.911 763.758L421.317 775.969L440.309 779.7L461.903 779.691L480.873 775.483Z" fill="#9FA7C2"/>
<path fill-rule="evenodd" clip-rule="evenodd" d="M560.5 562.472L570.887 546.07L578.563 528.279L582.997 508.884L583.73 489.618L575.085 470.629L559.873 454.271L539.82 443.002L528.659 460.635L518.725 479.148L516.083 500.43L523.808 519.035L534.186 536.368L547.346 549.889L560.5 562.472Z" fill="#9FA7C2"/>
<path fill-rule="evenodd" clip-rule="evenodd" d="M1133.81 433.531L1119.51 422.327L1105.43 414.996L1087.95 407.967L1071.05 403.46L1051.96 410.17L1035.81 423.678L1024.38 437.865L1038.82 451.503L1054.67 462.355L1073.24 465.296L1091.41 460.67L1106.08 452.276L1121.2 443.013L1133.81 433.531Z" fill="#9FA7C2"/>
<path fill-rule="evenodd" clip-rule="evenodd" d="M1139.08 585.173L1135.11 567.653L1129.66 550.151L1121.39 534.847L1109.16 521.852L1092.22 515.586L1072.21 514.803L1052.44 518.178L1055.03 537.442L1060.53 556.592L1071.99 571.307L1087.03 580.129L1105.43 583.07L1122.26 584.406L1139.08 585.173Z" fill="#9FA7C2"/>
<path fill-rule="evenodd" clip-rule="evenodd" d="M1174.18 665.784L1165.76 651.097L1153.38 638.443L1140.38 627.626L1124.25 617.9L1105.47 618.966L1086.87 625.216L1069.4 633.895L1078.05 652.329L1090.98 667.602L1107.73 677.521L1125.55 678.707L1141.36 674.627L1159.33 670.908L1174.18 665.784Z" fill="#9FA7C2"/>
<path fill-rule="evenodd" clip-rule="evenodd" d="M1240.1 692.278L1221.85 693.464L1200.49 697.491L1184.39 706.074L1174.06 729.87L1171.96 754.154L1197.6 754.056L1218.35 745.496L1229.27 729.116L1235.95 708.866L1240.1 692.278Z" fill="#9FA7C2"/>
<path fill-rule="evenodd" clip-rule="evenodd" d="M1212.69 881.412L1209.85 861.399L1203.48 842.198L1191 825.615L1176.67 817.194L1158.19 817.001L1140.61 817.749L1141.45 835.394L1146.24 851.562L1155.72 866.938L1173.82 876.029L1192.65 879.095L1212.69 881.412Z" fill="#9FA7C2"/>
<path fill-rule="evenodd" clip-rule="evenodd" d="M1100.3 1017.4L1112.83 1004.84L1124.01 988.447L1131.69 972.14L1125.59 948.896L1111.1 930.885L1092.88 945.015L1082.71 967.076L1085.39 984.529L1091.21 1003.06L1100.3 1017.4Z" fill="#9FA7C2"/>
<path fill-rule="evenodd" clip-rule="evenodd" d="M953.485 1020.94L971.541 1022.17L990.72 1017.97L1007.04 1009.17L1018.03 990.597L1020.92 965.691L998.312 964.479L975.752 971.14L964.952 987.239L958.401 1005L953.485 1020.94Z" fill="#9FA7C2"/>
<path fill-rule="evenodd" clip-rule="evenodd" d="M1030.26 885.968L1052.46 889.497L1073.61 887.135L1093.43 881.99L1106.67 868.799L1113.32 851.885L1117.14 832.477L1100.1 828.602L1081.26 827.265L1063.82 832.532L1048.47 848.727L1038.51 866.094L1030.26 885.968Z" fill="#9FA7C2"/>
<path fill-rule="evenodd" clip-rule="evenodd" d="M1008.75 785.074L1024.06 777.637L1039.77 769.717L1053.97 757.13L1063.49 743.835L1067.4 725.6L1064.06 704.412L1055.55 686.066L1036.93 693.828L1020.08 701.659L1007.41 717.699L1002.84 734.647L1003.25 752.36L1005.74 768.977L1008.75 785.074Z" fill="#9FA7C2"/>
<path fill-rule="evenodd" clip-rule="evenodd" d="M438.221 362.052L431.399 378.961L428.381 399.266L431.063 415.869L447.562 433.683L468.463 443.545L477.098 423.033L477.326 399.369L467.242 382.71L452.686 371.081L438.221 362.052Z" fill="#9FA7C2"/>
<path fill-rule="evenodd" clip-rule="evenodd" d="M933.674 199.207L910.103 209.439L891.712 225.041L891.133 245.919L894.384 266.512L915.104 261.071L929.891 246.956L936.443 222.184L933.674 199.207Z" fill="#9FA7C2"/>
<path fill-rule="evenodd" clip-rule="evenodd" d="M262.553 324.383L268.579 345.509L276.737 364.376L291.186 378.771L308.427 385.076L326.171 385.405L344.975 381.134L340.985 362.895L335.125 347.112L323.853 332.617L304.018 326.677L281.765 324.477L262.553 324.383Z" fill="#9FA7C2"/>
<path fill-rule="evenodd" clip-rule="evenodd" d="M322.076 222.202L324.906 244.727L336.028 262.165L354.656 269.294L373.737 267.995L372.064 248.63L361.783 232.879L341.906 225.037L322.076 222.202Z" fill="#9FA7C2"/>
<path fill-rule="evenodd" clip-rule="evenodd" d="M283.156 160.762L297.667 175.69L319.213 187.919L335.659 183.278L351.464 170.742L340.491 157.451L323.75 149.174L301.503 152.035L283.156 160.762Z" fill="#9FA7C2"/>
<path fill-rule="evenodd" clip-rule="evenodd" d="M212.971 114.918L227.452 125.33L245.518 131.598L269.71 114.581L242.901 99.6291L225.625 105.326L212.971 114.918Z" fill="#9FA7C2"/>
<path fill-rule="evenodd" clip-rule="evenodd" d="M319.238 58.768L309.946 77.8463L307.798 97.722L317.496 111.52L333.554 121.819L341.125 107.023L343.278 89.0274L332.856 71.1224L319.238 58.768Z" fill="#9FA7C2"/>
<path fill-rule="evenodd" clip-rule="evenodd" d="M151.721 301.561L138.227 317.905L129.966 336.038L135.515 353.073L146.055 366.446L158.496 354.543L166.596 339.605L161.523 318.023L151.721 301.561Z" fill="#9FA7C2"/>
<path fill-rule="evenodd" clip-rule="evenodd" d="M184.385 437.671L163.546 423.268L141.691 416.526L122.248 426.263L107.983 441.109L123.286 454.116L142.475 459.749L164.791 450.511L184.385 437.671Z" fill="#9FA7C2"/>
<path fill-rule="evenodd" clip-rule="evenodd" d="M15.3491 386.791L11.0475 405.285L9.71142 426.041L15.8389 445.863L33.2979 462.3L57.493 469.899L63.9261 445.96L62.4146 421.348L47.9352 407.066L32.9719 395.592L15.3491 386.791Z" fill="#9FA7C2"/>
<path fill-rule="evenodd" clip-rule="evenodd" d="M135.606 505.863L117.467 510.471L99.5839 517.54L85.6267 529.616L79.1211 550.87L82.7444 574.295L105.526 569.865L125.601 557.735L133.024 540.618L135.623 523.576L135.606 505.863Z" fill="#9FA7C2"/>
<path fill-rule="evenodd" clip-rule="evenodd" d="M4 641.434L18.3693 654.829L36.8449 666.805L56.0086 672.533L73.2965 669.948L87.9166 658.841L99.3309 647.057L87.8654 633.475L74.2509 622.89L58.185 618.625L39.6376 622.562L20.2514 630.868L4 641.434Z" fill="#9FA7C2"/>
<path fill-rule="evenodd" clip-rule="evenodd" d="M188.056 578.768L175.606 594.823L163.462 614.713L159.527 637.326L165.78 653.798L177.254 668.889L190.714 681.463L203.539 667.707L213.044 652.094L217.461 633.494L210.601 614.088L199.251 594.326L188.056 578.768Z" fill="#9FA7C2"/>
<path fill-rule="evenodd" clip-rule="evenodd" d="M157.25 796.922L178.355 795.326L200.05 789.311L220.217 778.924L229.967 761.023L232.37 742.007L232.236 723.42L213.95 724.076L194.834 725.672L178.249 737.006L166.553 755.138L161.427 777.463L157.25 796.922Z" fill="#9FA7C2"/>
<path fill-rule="evenodd" clip-rule="evenodd" d="M623.685 473.772L645.305 461.417L662.48 445.631L663.431 423.575L656.396 404.642L638.406 411.941L623.882 426.173L620.582 450.486L623.685 473.772Z" fill="#9FA7C2"/>
<path fill-rule="evenodd" clip-rule="evenodd" d="M815.886 275.29L824.707 298.206L841.235 316.683L861.191 318.707L881.839 314.011L875.195 295.415L861.695 278.606L839.09 273.066L815.886 275.29Z" fill="#9FA7C2"/>
<path fill-rule="evenodd" clip-rule="evenodd" d="M955.116 479.614L951.142 455.017L938.375 433.624L919.521 427.29L898.361 428.333L899.98 448.623L910.009 466.213L932.487 477.228L955.116 479.614Z" fill="#9FA7C2"/>
<path fill-rule="evenodd" clip-rule="evenodd" d="M314.604 485.757L330.479 496.231L345.964 503.524L364.405 508.618L383.29 508.661L400.85 501.269L415.982 485.251L427.98 469.526L412.465 456.097L393.682 447.854L372.879 444.807L356.815 451.994L339.788 462.295L327.283 473.068L314.604 485.757Z" fill="#9FA7C2"/>
<path fill-rule="evenodd" clip-rule="evenodd" d="M258.472 610.474L269.758 623.857L282.697 636.659L296.594 648.287L314.909 656.377L334.656 652.875L353.454 645.16L370.693 633.331L359.363 616.051L344.925 602.512L327.025 592.825L308.703 591.954L290.457 598.021L274.696 603.603L258.472 610.474Z" fill="#9FA7C2"/>
<path fill-rule="evenodd" clip-rule="evenodd" d="M170.201 784.948L185.46 768.88L200.27 755.633L216.702 741.266" fill="#9FA7C2"/>
<path fill-rule="evenodd" clip-rule="evenodd" d="M191.338 665.174L188.846 643.356L188.354 621.94L187.11 603.173" fill="#9FA7C2"/>
<path fill-rule="evenodd" clip-rule="evenodd" d="M50.4268 453.808L37.7627 431.537L27.881 408.716" fill="#9FA7C2"/>
<path fill-rule="evenodd" clip-rule="evenodd" d="M1155.17 831.1L1168.6 841.873L1181.81 854.493L1194.62 866.328" fill="#9FA7C2"/>
<path fill-rule="evenodd" clip-rule="evenodd" d="M1513.08 218.138L1529.92 215.323L1546.9 215.32" fill="#9FA7C2"/>
<path fill-rule="evenodd" clip-rule="evenodd" d="M1386.26 587.673L1370.16 579.572L1354.95 571.567L1339.76 565.127" fill="#9FA7C2"/>
<path fill-rule="evenodd" clip-rule="evenodd" d="M1427.13 507.354L1435.39 483.544L1446.85 462.262" fill="#9FA7C2"/>
<path fill-rule="evenodd" clip-rule="evenodd" d="M1510.26 593.309L1519.59 578.859L1531.91 565.309L1544.08 553.854" fill="#9FA7C2"/>
<path fill-rule="evenodd" clip-rule="evenodd" d="M1358.08 287.533L1352.16 264.201L1346.81 241.032" fill="#9FA7C2"/>
<path d="M278.702 614.446L296.242 617.423M170.201 784.948L185.46 768.88L200.27 755.633L216.702 741.266M191.338 665.174L188.846 643.356L188.354 621.94L187.11 603.173M50.4268 453.808L37.7627 431.537L27.881 408.716M1155.17 831.1L1168.6 841.873L1181.81 854.493L1194.62 866.328M1513.08 218.138L1529.92 215.323L1546.9 215.32M1386.26 587.673L1370.16 579.572L1354.95 571.567L1339.76 565.127M1427.13 507.354L1435.39 483.544L1446.85 462.262M1510.26 593.309L1519.59 578.859L1531.91 565.309L1544.08 553.854M1358.08 287.533L1352.16 264.201L1346.81 241.032M739.765 309.742L727.148 324.27L717.628 340.164L710.78 358.045L706.551 376.772L714.886 395.67L726.286 412.922L742.263 427.007L756.054 410.934L769.261 393.862L772.763 374.365L768.801 354.568L760.184 338.849L750.017 323.567L739.765 309.742ZM595.721 285.949L591.62 306.424L589.942 328.376L595.084 349.265L608.127 362.172L624.476 369.545L641.831 375.562L648.366 358.698L649.031 340.575L645.36 322.557L632.085 307.554L613.555 295.029L595.721 285.949ZM506.523 350.031L514.236 373.414L529.087 391.452L549.026 395.432L570.496 391.939L564.993 372.524L552.738 355.296L529.084 349.708L506.523 350.031ZM465.349 266.431L447.087 259.521L427.467 257.171L409.877 260.938L392.09 277.048L383.925 298.495L406.161 307.442L428.547 306.712L444.906 296.43L456.455 281.38L465.349 266.431ZM768.025 227.069L788.245 239.508L812.766 246.076L831.183 236.736L844.221 221.539L828.456 208.739L807.969 203.176L786.74 213.339L768.025 227.069ZM417.449 337.235L393.806 346.661L375.639 363.028L372.785 382.081L378.543 403.081L397.611 396.335L413.481 383.892L419.295 360.416L417.449 337.235ZM804.311 334.902L799.396 352.361L796.45 371.853L799.86 391.049L814.867 408.616L837.472 416.775L846.021 395.825L845.293 370.382L834.022 355.076L820.06 344.73L804.311 334.902ZM1158.01 125.739L1132.85 122.353L1110.16 127.879L1096.19 144.556L1092.64 165.878L1112.98 169.856L1132.94 164.741L1147.65 147.445L1158.01 125.739ZM1113.09 243.072L1105.06 219.401L1090.95 200.776L1069.35 194.744L1050.82 198.633L1055.24 219.475L1065.32 235.607L1088.93 242.536L1113.09 243.072ZM1265.13 253.686L1251.62 232.881L1234.84 217.737L1214.11 216.832L1195.05 225.77L1203.47 244.246L1218.56 257.133L1243.11 258.427L1265.13 253.686ZM1253.52 377.226L1250.57 357.096L1240.32 339.771L1225.57 331.831L1208.14 333.927L1216.8 366.285L1235.68 373.928L1253.52 377.226ZM1138.57 276.634L1155.25 263.172L1166.95 247.068L1164.39 229.688L1155.63 213.961L1140.83 223.274L1131.38 238.126L1133.46 258.002L1138.57 276.634ZM1318.57 800.347L1304.85 778.779L1285.26 764.438L1265.52 766.08L1246.4 775.021L1255.47 792.47L1272.77 805.831L1295.58 805.72L1318.57 800.347ZM927.457 858.068L923.175 882.352L928.451 905.688L944.759 918.557L966.099 924.071L969.218 903.795L965.481 883.429L947.204 867.458L927.457 858.068ZM1420.29 734.049L1404.52 715.943L1384.03 703.375L1362.76 706.458L1345.61 717.528L1357.85 734.386L1375.42 745.714L1399.1 742.679L1420.29 734.049ZM1488.96 689.934L1482.78 665.88L1469.5 646.203L1450.21 639.734L1429.04 642.372L1433.04 664.229L1443.67 680.833L1465.66 687.935L1488.96 689.934ZM1491.12 772.096L1508.41 781.536L1528.51 783.061L1550.61 760.531L1520.91 749.697L1502.91 760.338L1491.12 772.096ZM1322.36 625.038L1307.48 637.417L1295 654.397L1285.11 671.943L1287.35 690.127L1293.99 703.57L1304.87 718.411L1323.9 703.157L1337.86 681.844L1336.38 661.141L1330.58 642.285L1322.36 625.038ZM1317.76 554.601L1325.75 573.318L1337.85 588.771L1353.61 602.173L1370.92 605.188L1388.1 603.042L1403.5 595.51L1395.54 572.391L1377.55 554.122L1357.47 549.446L1336.06 551.288L1317.76 554.601ZM1289.77 447.105L1298.22 465.612L1309.9 483.106L1325.77 495.241L1340.63 498.396L1358.88 495.286L1375.53 487.963L1365.2 464.873L1347.16 446.004L1329.62 441.629L1309.19 443.576L1289.77 447.105ZM1291.36 337.684L1299.53 356.221L1314.82 369.411L1330.38 370.6L1347.33 365.521L1330.28 337.666L1309.77 334.767L1291.36 337.684ZM1562.03 536.617L1541.11 538.184L1522.23 545.706L1505.18 555.877L1498.02 571.059L1495.63 587.483L1496.1 605.022L1522 603.9L1545.03 591.83L1554.63 576.375L1560.27 555.809L1562.03 536.617ZM1458.49 438.227L1440.83 445.99L1424.22 458.605L1412.38 474.147L1408.78 491.056L1412.88 507.654L1419.4 524.803L1443.03 513.846L1461.49 495.775L1463.24 476.794L1461.97 455.662L1458.49 438.227ZM1436.61 355.023L1418.16 355.118L1400.47 359.065L1385.41 368.224L1375.47 387.544L1373.66 410.141L1395.61 411.2L1416.61 403.734L1426.72 387.148L1431.63 371.541L1436.61 355.023ZM1341.52 218.764L1334.03 234.913L1329.89 253.173L1328.33 272.409L1343.21 290.967L1363.47 303.527L1374.2 283.777L1376.48 260.968L1366.32 243.234L1354.19 230.131L1341.52 218.764ZM1440.81 164.277L1427.71 175.374L1417.16 189.323L1409.13 204.418L1415.05 227.138L1426.47 245.708L1444.93 232.389L1455.27 211.629L1454.13 195.621L1448.42 178.363L1440.81 164.277ZM1570.1 213.858L1550.38 202.196L1524.97 195.86L1507.88 205.444L1494.15 220.333L1509.59 233.453L1529.75 238.65L1553.16 227.721L1570.1 213.858ZM1464 107.887L1462.7 127.463L1470.14 148.189L1486.2 155.546L1501.06 158.555L1497.71 125.904L1481.28 114.377L1464 107.887ZM1491.32 298.836L1478.13 287.854L1463.88 278.717L1448.17 272.211L1426.28 279.285L1410.02 293.149L1424.9 308.388L1445.77 318.183L1460.94 314.339L1476.74 306.792L1491.32 298.836ZM1008.07 130.288L988.462 144.705L973.279 165.256L976.151 185.942L985.424 205.538L1003.91 193.41L1015.96 177.449L1014.77 153.601L1008.07 130.288ZM1058.89 279.456L1047.34 264.231L1032.65 250.637L1013.55 242.588L990.375 247.156L969.633 261.393L982.119 281.683L1004.71 293.277L1024.34 293.308L1041.88 286.596L1058.89 279.456ZM441.44 155.993L420.064 163.913L400.542 177.645L396.179 196.207L400.431 215.461L418.182 210.727L434.897 199.687L440.917 176.653L441.44 155.993ZM712.835 70.7084L709.735 89.2256L711.847 107.403L738.65 124.01L741.903 92.7093L728.555 79.3897L712.835 70.7084ZM717.591 189.066L736.74 192.867L754.433 192.344L772.27 166.299L742.118 161.211L726.985 175.514L717.591 189.066ZM811.92 107.956L803.126 123.89L798.84 141.747L818.987 166.756L832.134 138.292L823.359 120.52L811.92 107.956ZM1474.45 553.439L1455.86 556.095L1438.99 565.725L1434.39 597.073L1463.55 588.463L1472.39 571.756L1474.45 553.439ZM1602.66 626.659L1583.08 616.725L1562.05 614.204L1546.43 623.079L1535.16 639.529L1551.97 648.149L1569.72 652.256L1587.79 641.624L1602.66 626.659ZM1549.3 61.9143L1533.4 71.8433L1520.97 88.1389L1530.52 118.07L1553.03 97.7053L1553.93 79.167L1549.3 61.9143ZM1439.82 5L1438.86 23.6776L1445.56 41.9565L1475.37 52.3527L1472.37 21.9544L1456.32 11.5805L1439.82 5ZM1142.17 335.985L1163.27 334.262L1181.04 324.709L1188.86 307.225L1189.97 291.181L1171.47 291.712L1155.38 298.053L1145.32 316.815L1142.17 335.985ZM1521.43 723.639L1534.25 708.227L1541.89 690.439L1535.77 674.556L1524.13 659.792L1513.43 672.418L1505.84 688.287L1512.37 707.908L1521.43 723.639ZM1625.05 738.288L1620.2 720.833L1608.25 706.08L1576.67 705.888L1589.86 733.354L1606.42 738.626L1625.05 738.288ZM1575.4 853.974L1583.98 837.465L1583.24 818.259L1558.49 798.265L1551.74 827.721L1560.77 842.497L1575.4 853.974ZM1454.93 834.344L1469.68 844.87L1488.24 850.229L1513.07 831.254L1485.58 817.446L1469.44 823.91L1454.93 834.344ZM534.676 830.709L514.777 819.851L491.444 815.848L475.992 825.805L462.913 843.364L480.646 852.063L499.617 856.209L518.666 845.375L534.676 830.709ZM537.975 959.148L540.322 933.043L534.646 908.186L518.695 896.4L496.894 891.692L492.805 911.412L497.23 932.502L515.167 948.889L537.975 959.148ZM400.405 912.717L412.357 896.938L421.363 880.01L427.254 861.742L418.094 838.773L400.341 820.633L383.114 839.001L375.223 861.272L380.172 881.657L389.832 897.014L400.405 912.717ZM621.595 816.91L600.623 820.345L581.485 830.985L574.985 847.417L574.344 866.708L593.597 864.118L610.12 857.12L617.998 837.844L621.595 816.91ZM457.95 664.812L464.692 646.514L468.238 627.366L468.345 607.671L453.382 588.122L429.764 576.287L419.583 597.439L418.043 622.699L428.863 639.023L442.557 652.752L457.95 664.812ZM306.404 799.795L327.004 792.706L344.631 780.476L362.039 764.787L365.614 746.387L362.446 727.298L357.557 709.701L339.944 714.358L323.983 722.437L310.842 736.429L304.423 757.708L304.572 778.703L306.404 799.795ZM480.873 775.483L473.088 756.377L458.669 740.015L444.742 726.037L426.434 722.516L408.342 726.22L393.189 732.51L397.915 748.479L406.911 763.758L421.317 775.969L440.309 779.7L461.903 779.691L480.873 775.483ZM560.5 562.472L570.887 546.07L578.563 528.279L582.997 508.884L583.73 489.618L575.085 470.629L559.873 454.271L539.82 443.002L528.659 460.635L518.725 479.148L516.083 500.43L523.808 519.035L534.186 536.368L547.346 549.889L560.5 562.472ZM1030.54 336.258L1010.67 333.085L992.935 332.031L973.185 333.719L952.987 338.61L938.495 355.113L930.906 373.77L925.027 396.004L945.468 401.578L967.594 403.218L987.725 397.647L1002.72 385.599L1014.47 369.023L1022.5 352.456L1030.54 336.258ZM1133.81 433.531L1119.51 422.327L1105.43 414.996L1087.95 407.967L1071.05 403.46L1051.96 410.17L1035.81 423.678L1024.38 437.865L1038.82 451.503L1054.67 462.355L1073.24 465.296L1091.41 460.67L1106.08 452.276L1121.2 443.013L1133.81 433.531ZM1139.08 585.173L1135.11 567.653L1129.66 550.151L1121.39 534.847L1109.16 521.852L1092.22 515.586L1072.21 514.803L1052.44 518.178L1055.03 537.442L1060.53 556.592L1071.99 571.307L1087.03 580.129L1105.43 583.07L1122.26 584.406L1139.08 585.173ZM1174.18 665.784L1165.76 651.097L1153.38 638.443L1140.38 627.626L1124.25 617.9L1105.47 618.966L1086.87 625.216L1069.4 633.895L1078.05 652.329L1090.98 667.602L1107.73 677.521L1125.55 678.707L1141.36 674.627L1159.33 670.908L1174.18 665.784ZM1240.1 692.278L1221.85 693.464L1200.49 697.491L1184.39 706.074L1174.06 729.87L1171.96 754.154L1197.6 754.056L1218.35 745.496L1229.27 729.116L1235.95 708.866L1240.1 692.278ZM1212.69 881.412L1209.85 861.399L1203.48 842.198L1191 825.615L1176.67 817.194L1158.19 817.001L1140.61 817.749L1141.45 835.394L1146.24 851.562L1155.72 866.938L1173.82 876.029L1192.65 879.095L1212.69 881.412ZM1100.3 1017.4L1112.83 1004.84L1124.01 988.447L1131.69 972.14L1125.59 948.896L1111.1 930.885L1092.88 945.015L1082.71 967.076L1085.39 984.529L1091.21 1003.06L1100.3 1017.4ZM953.485 1020.94L971.541 1022.17L990.72 1017.97L1007.04 1009.17L1018.03 990.597L1020.92 965.691L998.312 964.479L975.752 971.14L964.952 987.239L958.401 1005L953.485 1020.94ZM1030.26 885.968L1052.46 889.497L1073.61 887.135L1093.43 881.99L1106.67 868.799L1113.32 851.885L1117.14 832.477L1100.1 828.602L1081.26 827.265L1063.82 832.532L1048.47 848.727L1038.51 866.094L1030.26 885.968ZM1008.75 785.074L1024.06 777.637L1039.77 769.717L1053.97 757.13L1063.49 743.835L1067.4 725.6L1064.06 704.412L1055.55 686.066L1036.93 693.828L1020.08 701.659L1007.41 717.699L1002.84 734.647L1003.25 752.36L1005.74 768.977L1008.75 785.074ZM438.221 362.052L431.399 378.961L428.381 399.266L431.063 415.869L447.562 433.683L468.463 443.545L477.098 423.033L477.326 399.369L467.242 382.71L452.686 371.081L438.221 362.052ZM933.674 199.207L910.103 209.439L891.712 225.041L891.133 245.919L894.384 266.512L915.104 261.071L929.891 246.956L936.443 222.184L933.674 199.207ZM262.553 324.383L268.579 345.509L276.737 364.376L291.186 378.771L308.427 385.076L326.171 385.405L344.975 381.134L340.985 362.895L335.125 347.112L323.853 332.617L304.018 326.677L281.765 324.477L262.553 324.383ZM322.076 222.202L324.906 244.727L336.028 262.165L354.656 269.294L373.737 267.995L372.064 248.63L361.783 232.879L341.906 225.037L322.076 222.202ZM283.156 160.762L297.667 175.69L319.213 187.919L335.659 183.278L351.464 170.742L340.491 157.451L323.75 149.174L301.503 152.035L283.156 160.762ZM212.971 114.918L227.452 125.33L245.518 131.598L269.71 114.581L242.901 99.6291L225.625 105.326L212.971 114.918ZM319.238 58.768L309.946 77.8463L307.798 97.722L317.496 111.52L333.554 121.819L341.125 107.023L343.278 89.0274L332.856 71.1224L319.238 58.768ZM151.721 301.561L138.227 317.905L129.966 336.038L135.515 353.073L146.055 366.446L158.496 354.543L166.596 339.605L161.523 318.023L151.721 301.561ZM184.385 437.671L163.546 423.268L141.691 416.526L122.248 426.263L107.983 441.109L123.286 454.116L142.475 459.749L164.791 450.511L184.385 437.671ZM15.3491 386.791L11.0475 405.285L9.71142 426.041L15.8389 445.863L33.2979 462.3L57.493 469.899L63.9261 445.96L62.4146 421.348L47.9352 407.066L32.9719 395.592L15.3491 386.791ZM135.606 505.863L117.467 510.471L99.5839 517.54L85.6267 529.616L79.1211 550.87L82.7444 574.295L105.526 569.865L125.601 557.735L133.024 540.618L135.623 523.576L135.606 505.863ZM4 641.434L18.3693 654.829L36.8449 666.805L56.0086 672.533L73.2965 669.948L87.9166 658.841L99.3309 647.057L87.8654 633.475L74.2509 622.89L58.185 618.625L39.6376 622.562L20.2514 630.868L4 641.434ZM188.056 578.768L175.606 594.823L163.462 614.713L159.527 637.326L165.78 653.798L177.254 668.889L190.714 681.463L203.539 667.707L213.044 652.094L217.461 633.494L210.601 614.088L199.251 594.326L188.056 578.768ZM157.25 796.922L178.355 795.326L200.05 789.311L220.217 778.924L229.967 761.023L232.37 742.007L232.236 723.42L213.95 724.076L194.834 725.672L178.249 737.006L166.553 755.138L161.427 777.463L157.25 796.922ZM623.685 473.772L645.305 461.417L662.48 445.631L663.431 423.575L656.396 404.642L638.406 411.941L623.882 426.173L620.582 450.486L623.685 473.772ZM815.886 275.29L824.707 298.206L841.235 316.683L861.191 318.707L881.839 314.011L875.195 295.415L861.695 278.606L839.09 273.066L815.886 275.29ZM955.116 479.614L951.142 455.017L938.375 433.624L919.521 427.29L898.361 428.333L899.98 448.623L910.009 466.213L932.487 477.228L955.116 479.614ZM314.604 485.757L330.479 496.231L345.964 503.524L364.405 508.618L383.29 508.661L400.85 501.269L415.982 485.251L427.98 469.526L412.465 456.097L393.682 447.854L372.879 444.807L356.815 451.994L339.788 462.295L327.283 473.068L314.604 485.757ZM258.472 610.474L269.758 623.857L282.697 636.659L296.594 648.287L314.909 656.377L334.656 652.875L353.454 645.16L370.693 633.331L359.363 616.051L344.925 602.512L327.025 592.825L308.703 591.954L290.457 598.021L274.696 603.603L258.472 610.474Z" stroke="white" stroke-width="9.82009" stroke-linejoin="bevel"/>
<path d="M278.702 614.446L296.242 617.423L314.239 621.969L330.377 624.752L349.158 629.946M170.201 784.948L185.46 768.88L200.27 755.633L216.702 741.266M191.338 665.174L188.846 643.356L188.354 621.94L187.11 603.173M349.158 727.175L336.829 743.125L326.774 760.041L318.157 777.903M542.206 459.444L545.518 478.338L548.89 495.416L552.086 515.379L556.297 534.127M335.067 483.399L352.124 479.747L370.62 477.304L387.588 474.92L405.522 472.126M50.4268 453.808L37.7627 431.537L27.881 408.716M636.616 363.625L626.705 343.306L616.682 324.84L605.616 305.851M942.393 387.58L957.151 375.816L971.573 368.083L987.573 356.393L1002.98 348.125M1108.67 154.728L1123.22 144.366L1139.67 135M1067.8 529.9L1083.52 542.434L1101.4 556.505L1118.53 569.355M1049.48 702.871L1039.1 721.582L1027.72 741.728L1018.48 762.054M1155.17 831.1L1168.6 841.873L1181.81 854.493L1194.62 866.328M1513.08 218.138L1529.92 215.323L1546.9 215.32M1386.26 587.673L1370.16 579.572L1354.95 571.567L1339.76 565.127M1427.13 507.354L1435.39 483.544L1446.85 462.262M1510.26 593.309L1519.59 578.859L1531.91 565.309L1544.08 553.854M1358.08 287.533L1352.16 264.201L1346.81 241.032M739.765 309.742L727.148 324.27L717.628 340.164L710.78 358.045L706.551 376.772L714.886 395.67L726.286 412.922L742.263 427.007L756.054 410.934L769.261 393.862L772.763 374.365L768.801 354.568L760.184 338.849L750.017 323.567L739.765 309.742ZM595.721 285.949L591.62 306.424L589.942 328.376L595.084 349.265L608.127 362.172L624.476 369.545L641.831 375.562L648.366 358.698L649.031 340.575L645.36 322.557L632.085 307.554L613.555 295.029L595.721 285.949ZM506.523 350.031L514.236 373.414L529.087 391.452L549.026 395.432L570.496 391.939L564.993 372.524L552.738 355.296L529.084 349.708L506.523 350.031ZM465.349 266.431L447.087 259.521L427.467 257.171L409.877 260.938L392.09 277.048L383.925 298.495L406.161 307.442L428.547 306.712L444.906 296.43L456.455 281.38L465.349 266.431ZM768.025 227.069L788.245 239.508L812.766 246.076L831.183 236.736L844.221 221.539L828.456 208.739L807.969 203.176L786.74 213.339L768.025 227.069ZM417.449 337.235L393.806 346.661L375.639 363.028L372.785 382.081L378.543 403.081L397.611 396.335L413.481 383.892L419.295 360.416L417.449 337.235ZM804.311 334.902L799.396 352.361L796.45 371.853L799.86 391.049L814.867 408.616L837.472 416.775L846.021 395.825L845.293 370.382L834.022 355.076L820.06 344.73L804.311 334.902ZM1158.01 125.739L1132.85 122.353L1110.16 127.879L1096.19 144.556L1092.64 165.878L1112.98 169.856L1132.94 164.741L1147.65 147.445L1158.01 125.739ZM1113.09 243.072L1105.06 219.401L1090.95 200.776L1069.35 194.744L1050.82 198.633L1055.24 219.475L1065.32 235.607L1088.93 242.536L1113.09 243.072ZM1265.13 253.686L1251.62 232.881L1234.84 217.737L1214.11 216.832L1195.05 225.77L1203.47 244.246L1218.56 257.133L1243.11 258.427L1265.13 253.686ZM1253.52 377.226L1250.57 357.096L1240.32 339.771L1225.57 331.831L1208.14 333.927L1216.8 366.285L1235.68 373.928L1253.52 377.226ZM1138.57 276.634L1155.25 263.172L1166.95 247.068L1164.39 229.688L1155.63 213.961L1140.83 223.274L1131.38 238.126L1133.46 258.002L1138.57 276.634ZM1318.57 800.347L1304.85 778.779L1285.26 764.438L1265.52 766.08L1246.4 775.021L1255.47 792.47L1272.77 805.831L1295.58 805.72L1318.57 800.347ZM927.457 858.068L923.175 882.352L928.451 905.688L944.759 918.557L966.099 924.071L969.218 903.795L965.481 883.429L947.204 867.458L927.457 858.068ZM1420.29 734.049L1404.52 715.943L1384.03 703.375L1362.76 706.458L1345.61 717.528L1357.85 734.386L1375.42 745.714L1399.1 742.679L1420.29 734.049ZM1488.96 689.934L1482.78 665.88L1469.5 646.203L1450.21 639.734L1429.04 642.372L1433.04 664.229L1443.67 680.833L1465.66 687.935L1488.96 689.934ZM1491.12 772.096L1508.41 781.536L1528.51 783.061L1550.61 760.531L1520.91 749.697L1502.91 760.338L1491.12 772.096ZM1322.36 625.038L1307.48 637.417L1295 654.397L1285.11 671.943L1287.35 690.127L1293.99 703.57L1304.87 718.411L1323.9 703.157L1337.86 681.844L1336.38 661.141L1330.58 642.285L1322.36 625.038ZM1317.76 554.601L1325.75 573.318L1337.85 588.771L1353.61 602.173L1370.92 605.188L1388.1 603.042L1403.5 595.51L1395.54 572.391L1377.55 554.122L1357.47 549.446L1336.06 551.288L1317.76 554.601ZM1289.77 447.105L1298.22 465.612L1309.9 483.106L1325.77 495.241L1340.63 498.396L1358.88 495.286L1375.53 487.963L1365.2 464.873L1347.16 446.004L1329.62 441.629L1309.19 443.576L1289.77 447.105ZM1291.36 337.684L1299.53 356.221L1314.82 369.411L1330.38 370.6L1347.33 365.521L1330.28 337.666L1309.77 334.767L1291.36 337.684ZM1562.03 536.617L1541.11 538.184L1522.23 545.706L1505.18 555.877L1498.02 571.059L1495.63 587.483L1496.1 605.022L1522 603.9L1545.03 591.83L1554.63 576.375L1560.27 555.809L1562.03 536.617ZM1458.49 438.227L1440.83 445.99L1424.22 458.605L1412.38 474.147L1408.78 491.056L1412.88 507.654L1419.4 524.803L1443.03 513.846L1461.49 495.775L1463.24 476.794L1461.97 455.662L1458.49 438.227ZM1436.61 355.023L1418.16 355.118L1400.47 359.065L1385.41 368.224L1375.47 387.544L1373.66 410.141L1395.61 411.2L1416.61 403.734L1426.72 387.148L1431.63 371.541L1436.61 355.023ZM1341.52 218.764L1334.03 234.913L1329.89 253.173L1328.33 272.409L1343.21 290.967L1363.47 303.527L1374.2 283.777L1376.48 260.968L1366.32 243.234L1354.19 230.131L1341.52 218.764ZM1440.81 164.277L1427.71 175.374L1417.16 189.323L1409.13 204.418L1415.05 227.138L1426.47 245.708L1444.93 232.389L1455.27 211.629L1454.13 195.621L1448.42 178.363L1440.81 164.277ZM1570.1 213.858L1550.38 202.196L1524.97 195.86L1507.88 205.444L1494.15 220.333L1509.59 233.453L1529.75 238.65L1553.16 227.721L1570.1 213.858ZM1464 107.887L1462.7 127.463L1470.14 148.189L1486.2 155.546L1501.06 158.555L1497.71 125.904L1481.28 114.377L1464 107.887ZM1491.32 298.836L1478.13 287.854L1463.88 278.717L1448.17 272.211L1426.28 279.285L1410.02 293.149L1424.9 308.388L1445.77 318.183L1460.94 314.339L1476.74 306.792L1491.32 298.836ZM1008.07 130.288L988.462 144.705L973.279 165.256L976.151 185.942L985.424 205.538L1003.91 193.41L1015.96 177.449L1014.77 153.601L1008.07 130.288ZM1058.89 279.456L1047.34 264.231L1032.65 250.637L1013.55 242.588L990.375 247.156L969.633 261.393L982.119 281.683L1004.71 293.277L1024.34 293.308L1041.88 286.596L1058.89 279.456ZM441.44 155.993L420.064 163.913L400.542 177.645L396.179 196.207L400.431 215.461L418.182 210.727L434.897 199.687L440.917 176.653L441.44 155.993ZM712.835 70.7084L709.735 89.2256L711.847 107.403L738.65 124.01L741.903 92.7093L728.555 79.3897L712.835 70.7084ZM717.591 189.066L736.74 192.867L754.433 192.344L772.27 166.299L742.118 161.211L726.985 175.514L717.591 189.066ZM811.92 107.956L803.126 123.89L798.84 141.747L818.987 166.756L832.134 138.292L823.359 120.52L811.92 107.956ZM1474.45 553.439L1455.86 556.095L1438.99 565.725L1434.39 597.073L1463.55 588.463L1472.39 571.756L1474.45 553.439ZM1602.66 626.659L1583.08 616.725L1562.05 614.204L1546.43 623.079L1535.16 639.529L1551.97 648.149L1569.72 652.256L1587.79 641.624L1602.66 626.659ZM1549.3 61.9143L1533.4 71.8433L1520.97 88.1389L1530.52 118.07L1553.03 97.7053L1553.93 79.167L1549.3 61.9143ZM1439.82 5L1438.86 23.6776L1445.56 41.9565L1475.37 52.3527L1472.37 21.9544L1456.32 11.5805L1439.82 5ZM1142.17 335.985L1163.27 334.262L1181.04 324.709L1188.86 307.225L1189.97 291.181L1171.47 291.712L1155.38 298.053L1145.32 316.815L1142.17 335.985ZM1521.43 723.639L1534.25 708.227L1541.89 690.439L1535.77 674.556L1524.13 659.792L1513.43 672.418L1505.84 688.287L1512.37 707.908L1521.43 723.639ZM1625.05 738.288L1620.2 720.833L1608.25 706.08L1576.67 705.888L1589.86 733.354L1606.42 738.626L1625.05 738.288ZM1575.4 853.974L1583.98 837.465L1583.24 818.259L1558.49 798.265L1551.74 827.721L1560.77 842.497L1575.4 853.974ZM1454.93 834.344L1469.68 844.87L1488.24 850.229L1513.07 831.254L1485.58 817.446L1469.44 823.91L1454.93 834.344ZM534.676 830.709L514.777 819.851L491.444 815.848L475.992 825.805L462.913 843.364L480.646 852.063L499.617 856.209L518.666 845.375L534.676 830.709ZM537.975 959.148L540.322 933.043L534.646 908.186L518.695 896.4L496.894 891.692L492.805 911.412L497.23 932.502L515.167 948.889L537.975 959.148ZM400.405 912.717L412.357 896.938L421.363 880.01L427.254 861.742L418.094 838.773L400.341 820.633L383.114 839.001L375.223 861.272L380.172 881.657L389.832 897.014L400.405 912.717ZM621.595 816.91L600.623 820.345L581.485 830.985L574.985 847.417L574.344 866.708L593.597 864.118L610.12 857.12L617.998 837.844L621.595 816.91ZM457.95 664.812L464.692 646.514L468.238 627.366L468.345 607.671L453.382 588.122L429.764 576.287L419.583 597.439L418.043 622.699L428.863 639.023L442.557 652.752L457.95 664.812ZM306.404 799.795L327.004 792.706L344.631 780.476L362.039 764.787L365.614 746.387L362.446 727.298L357.557 709.701L339.944 714.358L323.983 722.437L310.842 736.429L304.423 757.708L304.572 778.703L306.404 799.795ZM480.873 775.483L473.088 756.377L458.669 740.015L444.742 726.037L426.434 722.516L408.342 726.22L393.189 732.51L397.915 748.479L406.911 763.758L421.317 775.969L440.309 779.7L461.903 779.691L480.873 775.483ZM560.5 562.472L570.887 546.07L578.563 528.279L582.997 508.884L583.73 489.618L575.085 470.629L559.873 454.271L539.82 443.002L528.659 460.635L518.725 479.148L516.083 500.43L523.808 519.035L534.186 536.368L547.346 549.889L560.5 562.472ZM1030.54 336.258L1010.67 333.085L992.935 332.031L973.185 333.719L952.987 338.61L938.495 355.113L930.906 373.77L925.027 396.004L945.468 401.578L967.594 403.218L987.725 397.647L1002.72 385.599L1014.47 369.023L1022.5 352.456L1030.54 336.258ZM1133.81 433.531L1119.51 422.327L1105.43 414.996L1087.95 407.967L1071.05 403.46L1051.96 410.17L1035.81 423.678L1024.38 437.865L1038.82 451.503L1054.67 462.355L1073.24 465.296L1091.41 460.67L1106.08 452.276L1121.2 443.013L1133.81 433.531ZM1139.08 585.173L1135.11 567.653L1129.66 550.151L1121.39 534.847L1109.16 521.852L1092.22 515.586L1072.21 514.803L1052.44 518.178L1055.03 537.442L1060.53 556.592L1071.99 571.307L1087.03 580.129L1105.43 583.07L1122.26 584.406L1139.08 585.173ZM1174.18 665.784L1165.76 651.097L1153.38 638.443L1140.38 627.626L1124.25 617.9L1105.47 618.966L1086.87 625.216L1069.4 633.895L1078.05 652.329L1090.98 667.602L1107.73 677.521L1125.55 678.707L1141.36 674.627L1159.33 670.908L1174.18 665.784ZM1240.1 692.278L1221.85 693.464L1200.49 697.491L1184.39 706.074L1174.06 729.87L1171.96 754.154L1197.6 754.056L1218.35 745.496L1229.27 729.116L1235.95 708.866L1240.1 692.278ZM1212.69 881.412L1209.85 861.399L1203.48 842.198L1191 825.615L1176.67 817.194L1158.19 817.001L1140.61 817.749L1141.45 835.394L1146.24 851.562L1155.72 866.938L1173.82 876.029L1192.65 879.095L1212.69 881.412ZM1100.3 1017.4L1112.83 1004.84L1124.01 988.447L1131.69 972.14L1125.59 948.896L1111.1 930.885L1092.88 945.015L1082.71 967.076L1085.39 984.529L1091.21 1003.06L1100.3 1017.4ZM953.485 1020.94L971.541 1022.17L990.72 1017.97L1007.04 1009.17L1018.03 990.597L1020.92 965.691L998.312 964.479L975.752 971.14L964.952 987.239L958.401 1005L953.485 1020.94ZM1030.26 885.968L1052.46 889.497L1073.61 887.135L1093.43 881.99L1106.67 868.799L1113.32 851.885L1117.14 832.477L1100.1 828.602L1081.26 827.265L1063.82 832.532L1048.47 848.727L1038.51 866.094L1030.26 885.968ZM1008.75 785.074L1024.06 777.637L1039.77 769.717L1053.97 757.13L1063.49 743.835L1067.4 725.6L1064.06 704.412L1055.55 686.066L1036.93 693.828L1020.08 701.659L1007.41 717.699L1002.84 734.647L1003.25 752.36L1005.74 768.977L1008.75 785.074ZM438.221 362.052L431.399 378.961L428.381 399.266L431.063 415.869L447.562 433.683L468.463 443.545L477.098 423.033L477.326 399.369L467.242 382.71L452.686 371.081L438.221 362.052ZM933.674 199.207L910.103 209.439L891.712 225.041L891.133 245.919L894.384 266.512L915.104 261.071L929.891 246.956L936.443 222.184L933.674 199.207ZM262.553 324.383L268.579 345.509L276.737 364.376L291.186 378.771L308.427 385.076L326.171 385.405L344.975 381.134L340.985 362.895L335.125 347.112L323.853 332.617L304.018 326.677L281.765 324.477L262.553 324.383ZM322.076 222.202L324.906 244.727L336.028 262.165L354.656 269.294L373.737 267.995L372.064 248.63L361.783 232.879L341.906 225.037L322.076 222.202ZM283.156 160.762L297.667 175.69L319.213 187.919L335.659 183.278L351.464 170.742L340.491 157.451L323.75 149.174L301.503 152.035L283.156 160.762ZM212.971 114.918L227.452 125.33L245.518 131.598L269.71 114.581L242.901 99.6291L225.625 105.326L212.971 114.918ZM319.238 58.768L309.946 77.8463L307.798 97.722L317.496 111.52L333.554 121.819L341.125 107.023L343.278 89.0274L332.856 71.1224L319.238 58.768ZM151.721 301.561L138.227 317.905L129.966 336.038L135.515 353.073L146.055 366.446L158.496 354.543L166.596 339.605L161.523 318.023L151.721 301.561ZM184.385 437.671L163.546 423.268L141.691 416.526L122.248 426.263L107.983 441.109L123.286 454.116L142.475 459.749L164.791 450.511L184.385 437.671ZM15.3491 386.791L11.0475 405.285L9.71142 426.041L15.8389 445.863L33.2979 462.3L57.493 469.899L63.9261 445.96L62.4146 421.348L47.9352 407.066L32.9719 395.592L15.3491 386.791ZM135.606 505.863L117.467 510.471L99.5839 517.54L85.6267 529.616L79.1211 550.87L82.7444 574.295L105.526 569.865L125.601 557.735L133.024 540.618L135.623 523.576L135.606 505.863ZM4 641.434L18.3693 654.829L36.8449 666.805L56.0086 672.533L73.2965 669.948L87.9166 658.841L99.3309 647.057L87.8654 633.475L74.2509 622.89L58.185 618.625L39.6376 622.562L20.2514 630.868L4 641.434ZM188.056 578.768L175.606 594.823L163.462 614.713L159.527 637.326L165.78 653.798L177.254 668.889L190.714 681.463L203.539 667.707L213.044 652.094L217.461 633.494L210.601 614.088L199.251 594.326L188.056 578.768ZM157.25 796.922L178.355 795.326L200.05 789.311L220.217 778.924L229.967 761.023L232.37 742.007L232.236 723.42L213.95 724.076L194.834 725.672L178.249 737.006L166.553 755.138L161.427 777.463L157.25 796.922ZM623.685 473.772L645.305 461.417L662.48 445.631L663.431 423.575L656.396 404.642L638.406 411.941L623.882 426.173L620.582 450.486L623.685 473.772ZM815.886 275.29L824.707 298.206L841.235 316.683L861.191 318.707L881.839 314.011L875.195 295.415L861.695 278.606L839.09 273.066L815.886 275.29ZM955.116 479.614L951.142 455.017L938.375 433.624L919.521 427.29L898.361 428.333L899.98 448.623L910.009 466.213L932.487 477.228L955.116 479.614ZM314.604 485.757L330.479 496.231L345.964 503.524L364.405 508.618L383.29 508.661L400.85 501.269L415.982 485.251L427.98 469.526L412.465 456.097L393.682 447.854L372.879 444.807L356.815 451.994L339.788 462.295L327.283 473.068L314.604 485.757ZM258.472 610.474L269.758 623.857L282.697 636.659L296.594 648.287L314.909 656.377L334.656 652.875L353.454 645.16L370.693 633.331L359.363 616.051L344.925 602.512L327.025 592.825L308.703 591.954L290.457 598.021L274.696 603.603L258.472 610.474Z" stroke="#06133B" stroke-width="4.91005" stroke-linejoin="bevel"/>
</g>
</svg>